<svg xmlns="http://www.w3.org/2000/svg" xmlns:xlink="http://www.w3.org/1999/xlink" viewBox="0 0 29.73 28.87"><defs><style>.cls-1{fill:url(#Gradient_bez_nazwy_3);}.cls-2{fill:url(#Gradient_bez_nazwy_3-2);}.cls-3{fill:url(#Gradient_bez_nazwy_3-3);}</style><linearGradient id="Gradient_bez_nazwy_3" x1="3.47" y1="22.52" x2="30.17" y2="0.27" gradientUnits="userSpaceOnUse"><stop offset="0.16" stop-color="#2ca391"/><stop offset="1" stop-color="#a3599f"/></linearGradient><linearGradient id="Gradient_bez_nazwy_3-2" x1="10.85" y1="31.37" x2="37.55" y2="9.12" xlink:href="#Gradient_bez_nazwy_3"/><linearGradient id="Gradient_bez_nazwy_3-3" x1="0.45" y1="18.9" x2="27.15" y2="-3.35" xlink:href="#Gradient_bez_nazwy_3"/></defs><g id="Warstwa_2" data-name="Warstwa 2"><g id="Warstwa_1-2" data-name="Warstwa 1"><g id="ecology"><path class="cls-1" d="M10.87,21.21H5.6l1.51-2.62,1.51.87a.48.48,0,0,0,.24.06A.53.53,0,0,0,9.39,19a.41.41,0,0,0,0-.16L7.48,13.35A.54.54,0,0,0,7,13H6.86L1.11,14.08a.53.53,0,0,0-.39.51.53.53,0,0,0,.28.47l1.38.8-2.28,4a.57.57,0,0,0-.1.31.45.45,0,0,0,0,.2l1.59,5.94a.53.53,0,0,0,.49.39h8.75a.53.53,0,0,0,.53-.53v-4.4A.52.52,0,0,0,10.87,21.21Zm-9.77-1,2.73-4.74-1.1-.63,3.88-.75L7.9,17.82l-1.18-.68-4.4,7.62Zm9.24,5.39H3.05L5,22.26h5.36Z"/><path class="cls-2" d="M29.67,21.55,25.29,14a.54.54,0,0,0-.72-.19L20.76,16a.54.54,0,0,0-.2.72l2.64,4.57h-3V19.52a.55.55,0,0,0-.07-.24.53.53,0,0,0-.46-.26.48.48,0,0,0-.26.07.45.45,0,0,0-.13.11l-3.8,4.37a.53.53,0,0,0-.09.64l.07.09,3.84,4.42a.55.55,0,0,0,.64.08.52.52,0,0,0,.26-.48v-1.6h4.58a.55.55,0,0,0,.31-.07.53.53,0,0,0,.16-.13l4.35-4.35A.54.54,0,0,0,29.67,21.55Zm-5.08,4.11H19.12v1.27l-2.59-3,2.59-3v1.36h8.81Zm-.17-4.39-2.68-4.64L24.64,15l3.64,6.31Z"/><path class="cls-3" d="M20.46,11.57a.55.55,0,0,0,.46-.27,1,1,0,0,0,0-.1l1.91-5.54a.53.53,0,0,0-.25-.59.52.52,0,0,0-.54,0l-1.39.8-2.29-4a.57.57,0,0,0-.22-.24A.44.44,0,0,0,18,1.61L12.05,0a.54.54,0,0,0-.58.23L7.09,7.83a.53.53,0,0,0,.2.72l3.8,2.2a.55.55,0,0,0,.73-.19L14.45,6,16,8.6l-1.52.88a.49.49,0,0,0-.17.18.53.53,0,0,0,.2.72l.14.06,5.7,1.11Zm-9.29-2L8.27,7.9l3.65-6.31,1.93,3.34Zm5.06.1L17.41,9,13,1.37l4.56,1.22L20.3,7.32l1.1-.63-1.29,3.74Z"/></g></g></g></svg>