<svg xmlns="http://www.w3.org/2000/svg" xmlns:xlink="http://www.w3.org/1999/xlink" viewBox="0 0 40.85 34.42"><defs><style>.cls-1{fill:none;}.cls-2{fill:url(#Gradient_bez_nazwy_3);}.cls-3{fill:url(#Gradient_bez_nazwy_3-2);}.cls-4{fill:url(#Gradient_bez_nazwy_3-3);}.cls-5{fill:#70c3b7;}.cls-6{fill:#63beaf;}.cls-7{fill:#37b49d;}.cls-8{fill:#1aa187;}.cls-9{fill:#74c5bc;}.cls-10{fill:#64bfb0;}.cls-11{clip-path:url(#clip-path);}.cls-12{fill:#81c8bc;}.cls-13{fill:#67c0b2;}.cls-14{fill:#24a38f;}.cls-15{fill:#36b49e;}.cls-16{fill:#64bfaf;}.cls-17{fill:#62beaf;}.cls-18{fill:#026d61;}.cls-19{fill:#0f8270;}.cls-20{fill:#53baa5;}.cls-21{fill:#78c6bf;}.cls-22{fill:#00514a;}.cls-23{fill:#2cac94;}.cls-24{fill:#61beaf;}.cls-25{fill:#30ab9c;}.cls-26{fill:#41b6a1;}.cls-27{clip-path:url(#clip-path-2);}</style><linearGradient id="Gradient_bez_nazwy_3" x1="-0.27" y1="37.25" x2="15.44" y2="9.2" gradientUnits="userSpaceOnUse"><stop offset="0.16" stop-color="#2ca391"/><stop offset="1" stop-color="#a3599f"/></linearGradient><linearGradient id="Gradient_bez_nazwy_3-2" x1="25.66" y1="51.78" x2="41.38" y2="23.72" xlink:href="#Gradient_bez_nazwy_3"/><linearGradient id="Gradient_bez_nazwy_3-3" x1="-21.03" y1="43.62" x2="44.51" y2="11.6" xlink:href="#Gradient_bez_nazwy_3"/><clipPath id="clip-path" transform="translate(0 -0.49)"><rect class="cls-1" x="2.91" width="9.95" height="9.7"/></clipPath><clipPath id="clip-path-2" transform="translate(0 -0.49)"><rect class="cls-1" x="30.04" y="13.05" width="9.95" height="9.7"/></clipPath></defs><g id="Warstwa_2" data-name="Warstwa 2"><g id="Warstwa_1-2" data-name="Warstwa 1"><path class="cls-2" d="M12,16.79H10.1l-.32.78H8.86l1.76-4.1h.81l1.76,4.1h-.92ZM11.63,16,11,14.51,10.42,16Z" transform="translate(0 -0.49)"/><path class="cls-3" d="M40.1,28.17a.86.86,0,0,1,.55.34,1.09,1.09,0,0,1,.2.65,1,1,0,0,1-.4.82,1.74,1.74,0,0,1-1.07.3H37.31V26.2h2a1.6,1.6,0,0,1,1,.29,1,1,0,0,1,.37.79,1,1,0,0,1-.16.55A.8.8,0,0,1,40.1,28.17ZM38.18,27v.94h1a.9.9,0,0,0,.5-.13.43.43,0,0,0,.18-.36c0-.3-.23-.45-.68-.45Zm0,2.58h1.14a.82.82,0,0,0,.5-.13.43.43,0,0,0,.17-.35c0-.28-.21-.42-.64-.42H38.18Z" transform="translate(0 -0.49)"/><path class="cls-4" d="M36.56,34.91a5.91,5.91,0,0,1-3.8-1.59,14,14,0,0,1-2.23-2.91c-.2-.32-.41-.65-.63-1a14.12,14.12,0,0,0-7-5.64c-2.68-.87-5.66-.73-8.54-.6l-1.14.05c-3.43.14-7,0-9.88-1.74A7,7,0,0,1,.05,16.72a4.54,4.54,0,0,1,1.11-3.78l.73.67a3.6,3.6,0,0,0-.85,3,6,6,0,0,0,2.77,4.08c2.65,1.63,6,1.73,9.32,1.59l1.13-.05c3-.14,6-.28,8.9.65a15.08,15.08,0,0,1,7.57,6l.65,1a13.2,13.2,0,0,0,2.06,2.7,4.37,4.37,0,0,0,4.05,1.19l.31.95A4.11,4.11,0,0,1,36.56,34.91Z" transform="translate(0 -0.49)"/><polygon class="cls-5" points="10.38 8.91 8.75 8.91 8.75 11.91 10.38 8.91"/><polygon class="cls-6" points="7.93 10.41 8.75 11.91 9.69 10.2 8.75 8.91 7.93 10.41"/><polygon class="cls-7" points="8.75 11.91 7.93 10.41 7.93 13.41 8.75 11.91"/><polygon class="cls-8" points="7.12 11.91 7.93 13.41 7.93 10.41 7.12 11.91"/><polygon class="cls-9" points="5.5 8.93 7.12 11.91 7.12 8.91 5.5 8.93"/><polygon class="cls-10" points="7.93 10.41 7.12 8.91 6.18 10.18 7.12 11.91 7.93 10.41"/><polygon class="cls-12" points="7.62 0 8.7 2.04 9.87 0 7.62 0"/><polygon class="cls-13" points="7.62 0 6.53 2.04 8.7 2.04 7.62 0"/><polygon class="cls-14" points="5.35 0 4.2 2.04 6.53 2.04 5.35 0"/><polygon class="cls-5" points="10.49 0.35 9.34 2.39 11.67 2.39 10.49 0.35"/><polygon class="cls-15" points="11.67 2.39 10.38 4.26 12.76 4.26 11.67 2.39"/><polygon class="cls-16" points="10.39 4.26 9.34 6.13 11.69 6.12 10.39 4.26"/><polygon class="cls-17" points="10.38 4.26 11.67 2.39 9.34 2.39 10.38 4.26"/><polygon class="cls-8" points="11.69 6.12 12.76 4.26 10.38 4.26 11.69 6.12"/><polygon class="cls-9" points="10.51 8.19 11.69 6.12 9.33 6.13 10.51 8.19"/><polygon class="cls-18" points="4.2 2.04 2.9 4.27 5.26 4.26 4.2 2.04"/><polygon class="cls-19" points="5.27 4.26 4.2 6.49 6.56 6.48 5.27 4.26"/><polygon class="cls-20" points="6.56 6.48 5.37 8.52 7.61 8.52 6.56 6.48"/><polygon class="cls-21" points="8.68 6.48 7.61 8.52 9.85 8.52 8.68 6.48"/><polygon class="cls-22" points="4.2 6.49 5.26 4.26 2.9 4.27 4.2 6.49"/><polygon class="cls-23" points="5.37 8.52 6.56 6.48 4.2 6.49 5.37 8.52"/><polygon class="cls-24" points="7.61 8.52 8.68 6.48 6.56 6.49 7.61 8.52"/><polygon class="cls-25" points="5.26 4.26 6.55 2.04 4.2 2.04 5.26 4.26"/><polygon class="cls-26" points="6.53 2.04 7.62 0 5.35 0 6.53 2.04"/><polygon class="cls-5" points="37.52 21.96 35.89 21.96 35.88 24.96 37.52 21.96"/><polygon class="cls-6" points="35.07 23.46 35.88 24.96 36.82 23.25 35.89 21.96 35.07 23.46"/><polygon class="cls-7" points="35.88 24.96 35.07 23.46 35.07 26.46 35.88 24.96"/><polygon class="cls-8" points="34.25 24.96 35.07 26.46 35.07 23.46 34.25 24.96"/><polygon class="cls-9" points="32.64 21.98 34.25 24.96 34.25 21.96 32.64 21.98"/><polygon class="cls-10" points="35.07 23.46 34.25 21.96 33.31 23.23 34.25 24.96 35.07 23.46"/><polygon class="cls-12" points="34.75 13.05 35.84 15.09 37.01 13.05 34.75 13.05"/><polygon class="cls-13" points="34.75 13.05 33.66 15.09 35.84 15.09 34.75 13.05"/><polygon class="cls-14" points="32.48 13.05 31.33 15.09 33.66 15.09 32.48 13.05"/><polygon class="cls-5" points="37.62 13.4 36.47 15.44 38.8 15.44 37.62 13.4"/><polygon class="cls-15" points="38.8 15.44 37.52 17.31 39.89 17.31 38.8 15.44"/><polygon class="cls-16" points="37.53 17.31 36.47 19.18 38.83 19.17 37.53 17.31"/><polygon class="cls-17" points="37.52 17.31 38.8 15.44 36.47 15.44 37.52 17.31"/><polygon class="cls-8" points="38.83 19.17 39.89 17.31 37.52 17.31 38.83 19.17"/><polygon class="cls-9" points="37.65 21.24 38.83 19.17 36.46 19.18 37.65 21.24"/><polygon class="cls-18" points="31.33 15.09 30.04 17.32 32.4 17.31 31.33 15.09"/><polygon class="cls-19" points="32.4 17.31 31.33 19.54 33.69 19.53 32.4 17.31"/><polygon class="cls-20" points="33.7 19.53 32.5 21.57 34.74 21.57 33.7 19.53"/><polygon class="cls-21" points="35.81 19.53 34.74 21.57 36.99 21.57 35.81 19.53"/><polygon class="cls-22" points="31.33 19.54 32.4 17.31 30.04 17.32 31.33 19.54"/><polygon class="cls-23" points="32.5 21.57 33.69 19.53 31.33 19.54 32.5 21.57"/><polygon class="cls-24" points="34.74 21.57 35.81 19.53 33.69 19.54 34.74 21.57"/><polygon class="cls-25" points="32.4 17.31 33.69 15.09 31.33 15.09 32.4 17.31"/><polygon class="cls-26" points="33.66 15.09 34.75 13.05 32.48 13.05 33.66 15.09"/></g></g></svg>